<svg viewBox="0 0 180 180" fill="none" xmlns="http://www.w3.org/2000/svg">
  <rect width="180" height="180" rx="40" fill="#0a0a0a"/>
  <g transform="translate(40, 16)" fill="white">
    <!-- Three flames at top -->
    <path d="M50 0 C54 6, 56 12, 50 18 C44 12, 46 6, 50 0Z"/>
    <path d="M40 5 C43 10, 44 14, 40 18 C36 14, 37 10, 40 5Z"/>
    <path d="M60 5 C63 10, 64 14, 60 18 C56 14, 57 10, 60 5Z"/>
    
    <!-- Coconut/bulb with horizontal lines -->
    <ellipse cx="50" cy="30" rx="14" ry="12"/>
    <path d="M38 26 Q50 34, 62 26" stroke="#0a0a0a" stroke-width="2" fill="none"/>
    <path d="M40 32 Q50 38, 60 32" stroke="#0a0a0a" stroke-width="2" fill="none"/>
    
    <!-- Large lotus petals - left side -->
    <path d="M36 40 C28 32, 14 32, 4 20 Q16 32, 32 38 Z"/>
    <path d="M36 44 C24 40, 8 44, 0 36 Q14 42, 32 44 Z"/>
    <path d="M36 50 C26 50, 12 56, 4 52 Q18 52, 34 50 Z"/>
    
    <!-- Large lotus petals - right side -->
    <path d="M64 40 C72 32, 86 32, 96 20 Q84 32, 68 38 Z"/>
    <path d="M64 44 C76 40, 92 44, 100 36 Q86 42, 68 44 Z"/>
    <path d="M64 50 C74 50, 88 56, 96 52 Q82 52, 66 50 Z"/>
    
    <!-- Decorated neck band -->
    <rect x="35" y="52" width="30" height="10" rx="2"/>
    <circle cx="42" cy="57" r="2.5" fill="#0a0a0a"/>
    <circle cx="50" cy="57" r="2.5" fill="#0a0a0a"/>
    <circle cx="58" cy="57" r="2.5" fill="#0a0a0a"/>
    
    <!-- Hanging bead strings - left -->
    <circle cx="33" cy="66" r="2.5"/>
    <circle cx="30" cy="74" r="2.5"/>
    <circle cx="28" cy="82" r="2.5"/>
    
    <!-- Hanging bead strings - right -->
    <circle cx="67" cy="66" r="2.5"/>
    <circle cx="70" cy="74" r="2.5"/>
    <circle cx="72" cy="82" r="2.5"/>
    
    <!-- Pot body -->
    <path d="M34 62 Q22 78, 26 100 Q36 114, 50 116 Q64 114, 74 100 Q78 78, 66 62 L66 62 Q58 62, 50 62 Q42 62, 34 62Z"/>
    
    <!-- Diamond decoration -->
    <path d="M50 72 L56 82 L50 92 L44 82 Z" fill="#0a0a0a"/>
    
    <!-- Lotus petals at bottom of pot -->
    <path d="M32 98 C40 90, 60 90, 68 98" stroke="#0a0a0a" stroke-width="2.5" fill="none"/>
    <path d="M36 106 C44 100, 56 100, 64 106" stroke="#0a0a0a" stroke-width="2.5" fill="none"/>
  </g>
</svg>
