<svg viewBox="0 0 180 180" fill="none" xmlns="http://www.w3.org/2000/svg">
  <rect width="180" height="180" rx="40" fill="#0a0a0a"/>
  <g transform="translate(42, 20)">
    <!-- Flames at top -->
    <path d="M48 8 Q52 4, 48 0 Q44 4, 48 8" stroke="white" stroke-width="1.5" fill="none"/>
    <path d="M40 12 Q43 8, 40 5" stroke="white" stroke-width="1.5" fill="none"/>
    <path d="M56 12 Q53 8, 56 5" stroke="white" stroke-width="1.5" fill="none"/>
    
    <!-- Coconut/Top bulb -->
    <ellipse cx="48" cy="21" rx="10" ry="8" stroke="white" stroke-width="2" fill="none"/>
    <path d="M41 19 Q48 24, 55 19" stroke="white" stroke-width="1.5" fill="none"/>
    <path d="M42 23 Q48 27, 54 23" stroke="white" stroke-width="1.5" fill="none"/>
    
    <!-- Mango leaves - left side -->
    <path d="M38 28 Q26 26, 18 17" stroke="white" stroke-width="2" fill="none"/>
    <path d="M38 28 Q23 30, 13 23" stroke="white" stroke-width="2" fill="none"/>
    <path d="M38 28 Q28 34, 20 30" stroke="white" stroke-width="2" fill="none"/>
    
    <!-- Mango leaves - right side -->
    <path d="M58 28 Q70 26, 78 17" stroke="white" stroke-width="2" fill="none"/>
    <path d="M58 28 Q73 30, 83 23" stroke="white" stroke-width="2" fill="none"/>
    <path d="M58 28 Q68 34, 76 30" stroke="white" stroke-width="2" fill="none"/>
    
    <!-- Pot neck with beads -->
    <rect x="36" y="30" width="24" height="10" rx="2" stroke="white" stroke-width="2" fill="none"/>
    <circle cx="40" cy="35" r="1.5" fill="white"/>
    <circle cx="48" cy="35" r="1.5" fill="white"/>
    <circle cx="56" cy="35" r="1.5" fill="white"/>
    
    <!-- Pot body - rounded kalash -->
    <path d="M33 42 Q26 57, 30 76 Q36 90, 48 93 Q60 90, 66 76 Q70 57, 63 42" stroke="white" stroke-width="2.5" fill="none"/>
    
    <!-- Lotus petals on pot -->
    <path d="M33 72 Q40 67, 48 72 Q56 67, 63 72" stroke="white" stroke-width="1.5" fill="none"/>
    <path d="M36 80 Q42 76, 48 80 Q54 76, 60 80" stroke="white" stroke-width="1.5" fill="none"/>
    
    <!-- Diamond decoration -->
    <path d="M48 52 L53 59 L48 66 L43 59 Z" stroke="white" stroke-width="1.5" fill="none"/>
    
    <!-- Beaded strings hanging -->
    <path d="M36 42 Q30 50, 33 57" stroke="white" stroke-width="1" fill="none"/>
    <circle cx="33" cy="58" r="1" fill="white"/>
    <path d="M60 42 Q66 50, 63 57" stroke="white" stroke-width="1" fill="none"/>
    <circle cx="63" cy="58" r="1" fill="white"/>
    
    <!-- Base -->
    <ellipse cx="48" cy="95" rx="18" ry="4" stroke="white" stroke-width="2" fill="none"/>
  </g>
</svg>
