<svg viewBox="0 0 180 180" fill="none" xmlns="http://www.w3.org/2000/svg">
  <rect width="180" height="180" rx="40" fill="#0a0a0a"/>
  <g transform="translate(42, 28)">
    <!-- Havan Kund (fire pit) base -->
    <path d="M8 90 L18 70 L78 70 L88 90 Z" stroke="white" stroke-width="2.5" fill="none" stroke-linecap="round" stroke-linejoin="round"/>
    <path d="M13 90 L83 90" stroke="white" stroke-width="2.5" stroke-linecap="round"/>
    <ellipse cx="48" cy="70" rx="30" ry="6" stroke="white" stroke-width="2" fill="none"/>
    
    <!-- Sacred Fire - main flame -->
    <path d="M48 65 Q63 45, 53 30 Q58 40, 48 20 Q38 40, 43 30 Q33 45, 48 65" stroke="#ff6b35" stroke-width="2.5" fill="none" stroke-linecap="round" stroke-linejoin="round"/>
    
    <!-- Inner flame -->
    <path d="M48 63 Q56 50, 50 40 Q53 45, 48 33 Q43 45, 46 40 Q40 50, 48 63" stroke="#ffb347" stroke-width="2" fill="none" stroke-linecap="round" stroke-linejoin="round"/>
    
    <!-- Side flames left -->
    <path d="M33 65 Q28 53, 36 43 Q30 50, 33 65" stroke="#ff6b35" stroke-width="2" fill="none" stroke-linecap="round" stroke-linejoin="round"/>
    
    <!-- Side flames right -->
    <path d="M63 65 Q68 53, 60 43 Q66 50, 63 65" stroke="#ff6b35" stroke-width="2" fill="none" stroke-linecap="round" stroke-linejoin="round"/>
    
    <!-- Sparks -->
    <circle cx="40" cy="25" r="1.5" fill="#ffb347"/>
    <circle cx="56" cy="23" r="1.5" fill="#ffb347"/>
    <circle cx="48" cy="14" r="2" fill="#ff6b35"/>
  </g>
</svg>
