<svg viewBox="0 0 180 180" fill="none" xmlns="http://www.w3.org/2000/svg">
  <rect width="180" height="180" rx="40" fill="#0a0a0a"/>
  <g transform="translate(34, 22)" fill="white">
    <!-- Flames at top -->
    <path d="M56 0 C59 5, 61 9, 56 14 C51 9, 53 5, 56 0Z"/>
    <path d="M48 3 C50 7, 51 11, 48 14 C45 11, 46 7, 48 3Z"/>
    <path d="M64 3 C66 7, 67 11, 64 14 C61 11, 62 7, 64 3Z"/>
    
    <!-- Coconut/lotus bud top -->
    <ellipse cx="56" cy="26" rx="13" ry="11"/>
    <path d="M47 22 C52 28, 60 28, 65 22" stroke="#0a0a0a" stroke-width="1.5" fill="none"/>
    <path d="M49 26 C53 30, 59 30, 63 26" stroke="#0a0a0a" stroke-width="1.5" fill="none"/>
    
    <!-- Lotus petals - left -->
    <path d="M43 30 C35 26, 26 28, 20 20 C28 24, 37 24, 43 30Z"/>
    <path d="M43 34 C34 32, 22 36, 14 30 C24 32, 36 30, 43 34Z"/>
    <path d="M43 38 C36 38, 26 44, 20 40 C28 40, 38 38, 43 38Z"/>
    
    <!-- Lotus petals - right -->
    <path d="M69 30 C77 26, 86 28, 92 20 C84 24, 75 24, 69 30Z"/>
    <path d="M69 34 C78 32, 90 36, 98 30 C88 32, 76 30, 69 34Z"/>
    <path d="M69 38 C76 38, 86 44, 92 40 C84 40, 74 38, 69 38Z"/>
    
    <!-- Pot neck band -->
    <rect x="41" y="41" width="30" height="11" rx="2"/>
    <circle cx="48" cy="47" r="2.5" fill="#0a0a0a"/>
    <circle cx="56" cy="47" r="2.5" fill="#0a0a0a"/>
    <circle cx="64" cy="47" r="2.5" fill="#0a0a0a"/>
    
    <!-- Beaded strings - left -->
    <circle cx="39" cy="55" r="2"/>
    <circle cx="37" cy="61" r="2"/>
    <circle cx="35" cy="67" r="2"/>
    
    <!-- Beaded strings - right -->
    <circle cx="73" cy="55" r="2"/>
    <circle cx="75" cy="61" r="2"/>
    <circle cx="77" cy="67" r="2"/>
    
    <!-- Pot body -->
    <path d="M39 52 Q30 70, 35 94 Q44 110, 56 112 Q68 110, 77 94 Q82 70, 73 52 L73 52 Q65 52, 56 52 Q47 52, 39 52Z"/>
    
    <!-- Lotus decoration on pot -->
    <path d="M41 89 C48 83, 64 83, 71 89 C64 84, 48 84, 41 89Z" fill="#0a0a0a"/>
    <path d="M45 96 C51 91, 61 91, 67 96 C61 92, 51 92, 45 96Z" fill="#0a0a0a"/>
    
    <!-- Diamond on pot -->
    <path d="M56 64 L62 73 L56 82 L50 73 Z" fill="#0a0a0a"/>
    
    <!-- Base -->
    <ellipse cx="56" cy="114" rx="20" ry="5"/>
  </g>
</svg>
