<svg viewBox="0 0 512 512" fill="none" xmlns="http://www.w3.org/2000/svg">
  <rect width="512" height="512" rx="100" fill="#0a0a0a"/>
  <g transform="translate(116, 70)" fill="white">
    <!-- Main flame -->
    <path d="M140 0 C172 50, 185 100, 140 168 C95 100, 108 50, 140 0Z"/>
    <!-- Inner flame -->
    <path d="M140 35 C160 70, 166 108, 140 148 C114 108, 120 70, 140 35Z" fill="#0a0a0a"/>
    <!-- Left flame -->
    <path d="M85 85 C105 118, 112 150, 85 185 C58 150, 65 118, 85 85Z"/>
    <!-- Right flame -->
    <path d="M195 85 C215 118, 222 150, 195 185 C168 150, 175 118, 195 85Z"/>
    <!-- Havan kund top -->
    <path d="M40 218 L75 185 L205 185 L240 218 Z"/>
    <rect x="32" y="218" width="216" height="28" rx="6"/>
    <!-- Kund body -->
    <path d="M20 246 L55 295 L225 295 L260 246 Z"/>
    <rect x="45" y="295" width="190" height="22" rx="5"/>
    <!-- Base -->
    <rect x="68" y="317" width="144" height="16" rx="4"/>
  </g>
</svg>
