<svg viewBox="0 0 192 192" fill="none" xmlns="http://www.w3.org/2000/svg">
  <rect width="192" height="192" rx="40" fill="#0a0a0a"/>
  <g transform="translate(46, 32)">
    <!-- Havan Kund (fire pit) base -->
    <path d="M10 95 L20 75 L80 75 L90 95 Z" stroke="white" stroke-width="2.5" fill="none" stroke-linecap="round" stroke-linejoin="round"/>
    <path d="M15 95 L85 95" stroke="white" stroke-width="2.5" stroke-linecap="round"/>
    <ellipse cx="50" cy="75" rx="30" ry="6" stroke="white" stroke-width="2" fill="none"/>
    
    <!-- Sacred Fire - main flame -->
    <path d="M50 70 Q65 50, 55 35 Q60 45, 50 25 Q40 45, 45 35 Q35 50, 50 70" stroke="#ff6b35" stroke-width="2.5" fill="none" stroke-linecap="round" stroke-linejoin="round"/>
    
    <!-- Inner flame -->
    <path d="M50 68 Q58 55, 52 45 Q55 50, 50 38 Q45 50, 48 45 Q42 55, 50 68" stroke="#ffb347" stroke-width="2" fill="none" stroke-linecap="round" stroke-linejoin="round"/>
    
    <!-- Side flames left -->
    <path d="M35 70 Q30 58, 38 48 Q32 55, 35 70" stroke="#ff6b35" stroke-width="2" fill="none" stroke-linecap="round" stroke-linejoin="round"/>
    
    <!-- Side flames right -->
    <path d="M65 70 Q70 58, 62 48 Q68 55, 65 70" stroke="#ff6b35" stroke-width="2" fill="none" stroke-linecap="round" stroke-linejoin="round"/>
    
    <!-- Sparks -->
    <circle cx="42" cy="30" r="1.5" fill="#ffb347"/>
    <circle cx="58" cy="28" r="1.5" fill="#ffb347"/>
    <circle cx="50" cy="18" r="2" fill="#ff6b35"/>
  </g>
</svg>
