<svg viewBox="0 0 192 192" fill="none" xmlns="http://www.w3.org/2000/svg">
  <rect width="192" height="192" rx="40" fill="#0a0a0a"/>
  <g transform="translate(46, 30)" fill="white">
    <!-- Main flame -->
    <path d="M50 0 C62 18, 68 36, 50 60 C32 36, 38 18, 50 0Z"/>
    <!-- Inner flame -->
    <path d="M50 12 C58 24, 60 38, 50 52 C40 38, 42 24, 50 12Z" fill="#0a0a0a"/>
    <!-- Left flame -->
    <path d="M30 30 C38 42, 40 54, 30 66 C20 54, 22 42, 30 30Z"/>
    <!-- Right flame -->
    <path d="M70 30 C78 42, 80 54, 70 66 C60 54, 62 42, 70 30Z"/>
    <!-- Havan kund top -->
    <path d="M15 78 L28 66 L72 66 L85 78 Z"/>
    <rect x="12" y="78" width="76" height="10" rx="2"/>
    <!-- Kund body -->
    <path d="M8 88 L20 104 L80 104 L92 88 Z"/>
    <rect x="16" y="104" width="68" height="8" rx="2"/>
    <!-- Base -->
    <rect x="24" y="112" width="52" height="6" rx="2"/>
  </g>
</svg>
