<svg viewBox="0 0 192 192" fill="none" xmlns="http://www.w3.org/2000/svg">
  <rect width="192" height="192" rx="40" fill="#0a0a0a"/>
  <g transform="translate(46, 24)">
    <!-- Flames at top -->
    <path d="M50 8 Q55 4, 50 0 Q45 4, 50 8" stroke="white" stroke-width="1.5" fill="none"/>
    <path d="M42 12 Q45 8, 42 5" stroke="white" stroke-width="1.5" fill="none"/>
    <path d="M58 12 Q55 8, 58 5" stroke="white" stroke-width="1.5" fill="none"/>
    
    <!-- Coconut/Top bulb -->
    <ellipse cx="50" cy="22" rx="10" ry="9" stroke="white" stroke-width="2" fill="none"/>
    <path d="M43 20 Q50 25, 57 20" stroke="white" stroke-width="1.5" fill="none"/>
    <path d="M44 24 Q50 28, 56 24" stroke="white" stroke-width="1.5" fill="none"/>
    
    <!-- Mango leaves - left side -->
    <path d="M40 30 Q28 28, 20 18" stroke="white" stroke-width="2" fill="none"/>
    <path d="M40 30 Q25 32, 15 24" stroke="white" stroke-width="2" fill="none"/>
    <path d="M40 30 Q30 36, 22 32" stroke="white" stroke-width="2" fill="none"/>
    
    <!-- Mango leaves - right side -->
    <path d="M60 30 Q72 28, 80 18" stroke="white" stroke-width="2" fill="none"/>
    <path d="M60 30 Q75 32, 85 24" stroke="white" stroke-width="2" fill="none"/>
    <path d="M60 30 Q70 36, 78 32" stroke="white" stroke-width="2" fill="none"/>
    
    <!-- Pot neck with beads -->
    <rect x="38" y="32" width="24" height="10" rx="2" stroke="white" stroke-width="2" fill="none"/>
    <circle cx="42" cy="37" r="1.5" fill="white"/>
    <circle cx="50" cy="37" r="1.5" fill="white"/>
    <circle cx="58" cy="37" r="1.5" fill="white"/>
    
    <!-- Pot body - rounded kalash -->
    <path d="M35 44 Q28 60, 32 80 Q38 95, 50 98 Q62 95, 68 80 Q72 60, 65 44" stroke="white" stroke-width="2.5" fill="none"/>
    
    <!-- Lotus petals on pot -->
    <path d="M35 75 Q42 70, 50 75 Q58 70, 65 75" stroke="white" stroke-width="1.5" fill="none"/>
    <path d="M38 82 Q44 78, 50 82 Q56 78, 62 82" stroke="white" stroke-width="1.5" fill="none"/>
    
    <!-- Diamond decoration -->
    <path d="M50 55 L55 62 L50 69 L45 62 Z" stroke="white" stroke-width="1.5" fill="none"/>
    
    <!-- Beaded strings hanging -->
    <path d="M38 44 Q32 52, 35 60" stroke="white" stroke-width="1" fill="none"/>
    <circle cx="35" cy="61" r="1" fill="white"/>
    <path d="M62 44 Q68 52, 65 60" stroke="white" stroke-width="1" fill="none"/>
    <circle cx="65" cy="61" r="1" fill="white"/>
    
    <!-- Base -->
    <ellipse cx="50" cy="100" rx="20" ry="4" stroke="white" stroke-width="2" fill="none"/>
  </g>
</svg>
