<svg viewBox="0 0 192 192" fill="none" xmlns="http://www.w3.org/2000/svg">
  <rect width="192" height="192" rx="40" fill="#0a0a0a"/>
  <g transform="translate(46, 36)" stroke="white" stroke-linecap="round" stroke-linejoin="round" fill="none">
    <!-- Pot base -->
    <ellipse cx="50" cy="82" rx="12" ry="3" stroke-width="2.5"/>
    <!-- Pot body - rounded -->
    <path d="M32 65 Q28 50, 38 42 L62 42 Q72 50, 68 65 Q65 75, 50 78 Q35 75, 32 65Z" stroke-width="2.5"/>
    <!-- Pot neck -->
    <path d="M38 42 L38 36 Q38 32, 50 30 Q62 32, 62 36 L62 42" stroke-width="2.5"/>
    <!-- Mango leaves - left -->
    <path d="M40 32 Q28 28, 22 18" stroke-width="2"/>
    <path d="M40 32 Q30 30, 26 22" stroke-width="2"/>
    <!-- Mango leaves - right -->
    <path d="M60 32 Q72 28, 78 18" stroke-width="2"/>
    <path d="M60 32 Q70 30, 74 22" stroke-width="2"/>
    <!-- Coconut on top -->
    <ellipse cx="50" cy="24" rx="8" ry="7" stroke-width="2.5"/>
    <!-- Coconut tuft -->
    <path d="M46 18 Q48 12, 50 10" stroke-width="1.5"/>
    <path d="M50 17 L50 9" stroke-width="1.5"/>
    <path d="M54 18 Q52 12, 50 10" stroke-width="1.5"/>
  </g>
</svg>
