<svg viewBox="0 0 192 192" fill="none" xmlns="http://www.w3.org/2000/svg">
  <rect width="192" height="192" rx="40" fill="#0a0a0a"/>
  <g transform="translate(36, 26)" fill="white">
    <!-- Flames at top -->
    <path d="M60 0 C63 5, 65 10, 60 16 C55 10, 57 5, 60 0Z"/>
    <path d="M52 4 C54 8, 55 12, 52 16 C49 12, 50 8, 52 4Z"/>
    <path d="M68 4 C70 8, 71 12, 68 16 C65 12, 66 8, 68 4Z"/>
    
    <!-- Coconut/lotus bud top -->
    <ellipse cx="60" cy="28" rx="14" ry="12"/>
    <path d="M50 24 C55 30, 65 30, 70 24" stroke="#0a0a0a" stroke-width="1.5" fill="none"/>
    <path d="M52 28 C56 32, 64 32, 68 28" stroke="#0a0a0a" stroke-width="1.5" fill="none"/>
    
    <!-- Lotus petals - left -->
    <path d="M46 32 C38 28, 28 30, 22 22 C30 26, 40 26, 46 32Z"/>
    <path d="M46 36 C36 34, 24 38, 16 32 C26 34, 38 32, 46 36Z"/>
    <path d="M46 40 C38 40, 28 46, 22 42 C30 42, 40 40, 46 40Z"/>
    
    <!-- Lotus petals - right -->
    <path d="M74 32 C82 28, 92 30, 98 22 C90 26, 80 26, 74 32Z"/>
    <path d="M74 36 C84 34, 96 38, 104 32 C94 34, 82 32, 74 36Z"/>
    <path d="M74 40 C82 40, 92 46, 98 42 C90 42, 80 40, 74 40Z"/>
    
    <!-- Pot neck band -->
    <rect x="44" y="44" width="32" height="12" rx="2"/>
    <circle cx="52" cy="50" r="2.5" fill="#0a0a0a"/>
    <circle cx="60" cy="50" r="2.5" fill="#0a0a0a"/>
    <circle cx="68" cy="50" r="2.5" fill="#0a0a0a"/>
    
    <!-- Beaded strings - left -->
    <circle cx="42" cy="58" r="2"/>
    <circle cx="40" cy="64" r="2"/>
    <circle cx="38" cy="70" r="2"/>
    
    <!-- Beaded strings - right -->
    <circle cx="78" cy="58" r="2"/>
    <circle cx="80" cy="64" r="2"/>
    <circle cx="82" cy="70" r="2"/>
    
    <!-- Pot body -->
    <path d="M42 56 Q32 75, 38 100 Q48 118, 60 120 Q72 118, 82 100 Q88 75, 78 56 L78 56 Q70 56, 60 56 Q50 56, 42 56Z"/>
    
    <!-- Lotus decoration on pot -->
    <path d="M44 95 C52 88, 68 88, 76 95 C68 90, 52 90, 44 95Z" fill="#0a0a0a"/>
    <path d="M48 102 C54 97, 66 97, 72 102 C66 98, 54 98, 48 102Z" fill="#0a0a0a"/>
    
    <!-- Diamond on pot -->
    <path d="M60 68 L66 78 L60 88 L54 78 Z" fill="#0a0a0a"/>
    
    <!-- Base -->
    <ellipse cx="60" cy="122" rx="22" ry="5"/>
  </g>
</svg>
