<svg viewBox="0 0 400 100" fill="none" xmlns="http://www.w3.org/2000/svg">
  <!-- Horizontal Full Logo - Icon + Text side by side -->
  <g fill="#1a1a1a">
    <!-- Kalash Icon (scaled down) -->
    <g transform="translate(10, 5) scale(0.75)">
      <path d="M50 0 C54 6, 56 12, 50 18 C44 12, 46 6, 50 0Z"/>
      <path d="M40 4 C43 9, 44 13, 40 17 C36 13, 37 9, 40 4Z"/>
      <path d="M60 4 C63 9, 64 13, 60 17 C56 13, 57 9, 60 4Z"/>
      <ellipse cx="50" cy="28" rx="14" ry="10"/>
      <path d="M36 38 C26 32, 12 34, 4 24 Q16 34, 32 38 Z"/>
      <path d="M36 44 C22 42, 8 48, 0 40 Q14 46, 32 44 Z"/>
      <path d="M64 38 C74 32, 88 34, 96 24 Q84 34, 68 38 Z"/>
      <path d="M64 44 C78 42, 92 48, 100 40 Q86 46, 68 44 Z"/>
      <rect x="36" y="48" width="28" height="8" rx="2"/>
      <path d="M34 56 Q24 72, 28 92 Q38 104, 50 106 Q62 104, 72 92 Q76 72, 66 56 Z"/>
      <path d="M50 68 L56 78 L50 88 L44 78 Z" fill="white"/>
    </g>
    
    <!-- Text: दakshina -->
    <text x="105" y="68" font-family="Arial, sans-serif" font-size="48" font-weight="400">
      <tspan font-weight="600" font-size="56">द</tspan>akshina
    </text>
    
    <!-- Decorative swirl -->
    <path d="M105 78 Q150 88, 200 78 Q250 68, 300 78 Q350 88, 380 78" stroke="#1a1a1a" stroke-width="2" fill="none"/>
  </g>
</svg>
