<svg viewBox="0 0 200 240" fill="none" xmlns="http://www.w3.org/2000/svg">
  <!-- Stacked Centered - Icon on top, text below -->
  <g fill="#1a1a1a">
    <!-- Kalash centered -->
    <g transform="translate(50, 10)">
      <path d="M50 0 C55 8, 58 14, 50 22 C42 14, 45 8, 50 0Z"/>
      <path d="M38 5 C42 11, 44 16, 38 21 C32 16, 34 11, 38 5Z"/>
      <path d="M62 5 C66 11, 68 16, 62 21 C56 16, 58 11, 62 5Z"/>
      
      <ellipse cx="50" cy="32" rx="15" ry="11"/>
      <path d="M37 28 Q50 36, 63 28" stroke="white" stroke-width="2" fill="none"/>
      <path d="M39 34 Q50 40, 61 34" stroke="white" stroke-width="2" fill="none"/>
      
      <path d="M35 42 C24 35, 8 38, 0 26 Q14 38, 32 42 Z"/>
      <path d="M35 50 C20 46, 4 52, 0 42 Q16 50, 32 50 Z"/>
      <path d="M65 42 C76 35, 92 38, 100 26 Q86 38, 68 42 Z"/>
      <path d="M65 50 C80 46, 96 52, 100 42 Q84 50, 68 50 Z"/>
      
      <rect x="35" y="54" width="30" height="10" rx="2"/>
      <circle cx="43" cy="59" r="2.5" fill="white"/>
      <circle cx="50" cy="59" r="2.5" fill="white"/>
      <circle cx="57" cy="59" r="2.5" fill="white"/>
      
      <circle cx="32" cy="68" r="2.5"/>
      <circle cx="29" cy="76" r="2.5"/>
      <circle cx="68" cy="68" r="2.5"/>
      <circle cx="71" cy="76" r="2.5"/>
      
      <path d="M33 64 Q20 82, 25 106 Q38 122, 50 124 Q62 122, 75 106 Q80 82, 67 64 Z"/>
      <path d="M50 78 L58 90 L50 102 L42 90 Z" fill="white"/>
      <path d="M32 100 C42 92, 58 92, 68 100" stroke="white" stroke-width="2.5" fill="none"/>
    </g>
    
    <!-- Text below -->
    <text x="100" y="185" text-anchor="middle" font-family="Arial, sans-serif" font-size="36" font-weight="400">
      <tspan font-weight="600" font-size="44">द</tspan>akshina
    </text>
    
    <!-- Swirl decoration -->
    <path d="M30 200 Q60 215, 100 200 Q140 185, 170 200" stroke="#1a1a1a" stroke-width="2" fill="none"/>
  </g>
</svg>
