<svg viewBox="0 0 100 130" fill="none" xmlns="http://www.w3.org/2000/svg">
  <!-- Detailed Icon Only - Matches original image closely -->
  <g fill="#1a1a1a">
    <!-- Three flames -->
    <path d="M50 0 C56 10, 60 18, 50 28 C40 18, 44 10, 50 0Z"/>
    <path d="M36 8 C41 16, 43 22, 36 28 C29 22, 31 16, 36 8Z"/>
    <path d="M64 8 C69 16, 71 22, 64 28 C57 22, 59 16, 64 8Z"/>
    
    <!-- Coconut with decorative lines -->
    <ellipse cx="50" cy="40" rx="16" ry="13"/>
    <path d="M36 35 Q50 46, 64 35" stroke="white" stroke-width="2.5" fill="none"/>
    <path d="M38 42 Q50 50, 62 42" stroke="white" stroke-width="2.5" fill="none"/>
    
    <!-- Lotus petals - 3 on each side -->
    <path d="M34 52 C22 42, 4 44, 0 28 Q16 44, 30 52 Z"/>
    <path d="M34 60 C18 54, 0 62, 0 50 Q18 60, 32 60 Z"/>
    <path d="M34 68 C22 68, 6 76, 0 70 Q18 72, 32 68 Z"/>
    
    <path d="M66 52 C78 42, 96 44, 100 28 Q84 44, 70 52 Z"/>
    <path d="M66 60 C82 54, 100 62, 100 50 Q82 60, 68 60 Z"/>
    <path d="M66 68 C78 68, 94 76, 100 70 Q82 72, 68 68 Z"/>
    
    <!-- Decorated neck band -->
    <rect x="34" y="70" width="32" height="12" rx="2"/>
    <circle cx="42" cy="76" r="3" fill="white"/>
    <circle cx="50" cy="76" r="3" fill="white"/>
    <circle cx="58" cy="76" r="3" fill="white"/>
    
    <!-- Hanging bead strings -->
    <circle cx="30" cy="86" r="3"/>
    <circle cx="27" cy="95" r="3"/>
    <circle cx="24" cy="104" r="3"/>
    <circle cx="70" cy="86" r="3"/>
    <circle cx="73" cy="95" r="3"/>
    <circle cx="76" cy="104" r="3"/>
    
    <!-- Pot body - rounded kalash -->
    <path d="M32 82 Q16 102, 22 122 Q36 134, 50 136 Q64 134, 78 122 Q84 102, 68 82 L68 82 Q60 82, 50 82 Q40 82, 32 82Z"/>
    
    <!-- Diamond in center -->
    <path d="M50 94 L58 106 L50 118 L42 106 Z" fill="white"/>
    
    <!-- Lotus decoration on pot bottom -->
    <path d="M28 118 C40 106, 60 106, 72 118" stroke="white" stroke-width="3" fill="none"/>
    <path d="M34 128 C44 120, 56 120, 66 128" stroke="white" stroke-width="3" fill="none"/>
  </g>
</svg>
